<?xml version="1.0" standalone="no"?>
<!DOCTYPE svg PUBLIC "-//W3C//DTD SVG 20010904//EN"
 "http://www.w3.org/TR/2001/REC-SVG-20010904/DTD/svg10.dtd">
<svg version="1.0" xmlns="http://www.w3.org/2000/svg"
 width="1028.000000pt" height="1024.000000pt" viewBox="0 0 1028.000000 1024.000000"
 preserveAspectRatio="xMidYMid meet">

<g transform="translate(0.000000,1024.000000) scale(0.100000,-0.100000)"
fill="#000000" stroke="none">
<path d="M4890 9764 c-280 -24 -453 -48 -682 -94 -501 -103 -1015 -307 -1473
-584 -323 -195 -606 -418 -880 -691 -534 -533 -911 -1140 -1145 -1845 -224
-671 -292 -1361 -204 -2070 189 -1525 1140 -2879 2519 -3586 521 -267 1063
-430 1660 -499 191 -22 631 -31 825 -16 664 50 1267 216 1835 506 1163 595
2032 1646 2390 2890 292 1020 229 2120 -179 3097 -398 954 -1100 1749 -2011
2278 -144 83 -437 223 -615 293 -399 158 -801 255 -1265 307 -97 11 -685 22
-775 14z m555 -434 c787 -47 1502 -285 2150 -716 61 -41 124 -85 140 -99 l30
-24 -1050 -1 -1050 0 -580 -651 -580 -651 -3 651 -2 651 -890 0 -890 0 0
-1100 0 -1099 2228 -2492 c1225 -1370 2228 -2495 2230 -2499 3 -9 -209 -109
-373 -175 -348 -140 -709 -231 -1120 -282 -178 -22 -741 -25 -910 -5 -369 45
-649 106 -950 209 -1775 609 -2944 2282 -2892 4138 10 340 43 589 122 910 157
639 449 1211 883 1730 184 220 515 525 768 707 788 569 1771 855 2739 798z
m2520 -994 c506 -421 923 -982 1184 -1593 363 -850 437 -1803 211 -2703 -93
-372 -250 -758 -445 -1095 -278 -480 -692 -943 -1142 -1278 -111 -82 -296
-207 -306 -207 -4 0 -7 511 -7 1135 l0 1135 -985 1067 -984 1066 37 43 c161
187 2310 2523 2319 2521 6 -1 59 -42 118 -91z"/>
<path d="M2720 5555 l1 -350 889 -988 890 -988 0 359 0 359 -856 944 c-471
519 -871 960 -890 979 l-34 35 0 -350z"/>
<path d="M2720 4155 l1 -650 855 -925 c470 -509 870 -941 889 -960 l35 -35 0
631 0 630 -861 949 c-473 523 -874 963 -890 980 l-29 30 0 -650z"/>
</g>
</svg>
